<svg width="180" height="34" viewBox="0 0 180 34" fill="none" xmlns="http://www.w3.org/2000/svg">
<g clip-path="url(#clip0_3125_690)">
<path d="M48.0413 7.08V25.76H42.3613V7.08H35.7113V2.23H54.6913V7.08H48.0413Z" fill="#4CAF50"/>
<path d="M53.7413 11.47C54.7113 10.54 55.8513 9.83999 57.1513 9.37999C58.4513 8.91999 59.7713 8.67999 61.1213 8.67999C62.4713 8.67999 63.7013 8.84999 64.6613 9.19999C65.6213 9.53999 66.4013 10.08 67.0013 10.8C67.6013 11.52 68.0413 12.43 68.3113 13.53C68.5913 14.63 68.7313 15.93 68.7313 17.44V25.78H63.7413V24.02H63.6413C63.2213 24.71 62.5813 25.24 61.7313 25.62C60.8813 26 59.9513 26.19 58.9513 26.19C58.2913 26.19 57.6013 26.1 56.8913 25.92C56.1813 25.74 55.5313 25.45 54.9513 25.06C54.3613 24.66 53.8813 24.13 53.5013 23.46C53.1213 22.8 52.9313 21.98 52.9313 21C52.9313 19.8 53.2613 18.84 53.9113 18.11C54.5613 17.38 55.4113 16.81 56.4413 16.41C57.4713 16.01 58.6213 15.75 59.8813 15.61C61.1413 15.48 62.3713 15.41 63.5713 15.41V15.14C63.5713 14.32 63.2813 13.72 62.7113 13.33C62.1313 12.94 61.4213 12.75 60.5813 12.75C59.8013 12.75 59.0613 12.92 58.3413 13.25C57.6213 13.58 57.0013 13.98 56.5013 14.45L53.7413 11.49V11.47ZM63.7413 18.55H63.0413C62.4413 18.55 61.8413 18.58 61.2313 18.63C60.6213 18.69 60.0813 18.79 59.6013 18.95C59.1213 19.11 58.7313 19.33 58.4213 19.63C58.1113 19.93 57.9513 20.32 57.9513 20.81C57.9513 21.12 58.0213 21.39 58.1713 21.61C58.3113 21.83 58.5013 22.01 58.7213 22.14C58.9413 22.27 59.2013 22.37 59.4813 22.42C59.7713 22.48 60.0513 22.5 60.3113 22.5C61.4213 22.5 62.2713 22.2 62.8513 21.59C63.4413 20.98 63.7313 20.16 63.7313 19.11V18.54L63.7413 18.55Z" fill="#4CAF50"/>
<path d="M83.0613 13.69C82.8213 13.62 82.5813 13.58 82.3513 13.56C82.1213 13.54 81.8913 13.53 81.6713 13.53C80.9413 13.53 80.3213 13.66 79.8313 13.93C79.3313 14.2 78.9313 14.52 78.6313 14.89C78.3313 15.27 78.1113 15.67 77.9813 16.12C77.8513 16.56 77.7813 16.95 77.7813 17.28V25.77H72.3313V9.23H77.5813V11.62H77.6513C78.0713 10.77 78.6713 10.08 79.4413 9.55C80.2213 9.01 81.1113 8.75 82.1313 8.75C82.3513 8.75 82.5713 8.76 82.7813 8.78C82.9913 8.8 83.1613 8.84 83.3013 8.88L83.0713 13.7L83.0613 13.69Z" fill="#4CAF50"/>
<path d="M101.591 17.68V18.34C101.591 18.56 101.581 18.77 101.561 18.97H89.5613C89.6013 19.44 89.7413 19.86 89.9813 20.23C90.2113 20.61 90.5113 20.93 90.8813 21.21C91.2513 21.49 91.6613 21.7 92.1113 21.86C92.5613 22.02 93.0313 22.09 93.5213 22.09C94.3813 22.09 95.1213 21.93 95.7113 21.61C96.3113 21.29 96.8013 20.87 97.1713 20.36L100.961 22.75C100.181 23.88 99.1613 24.75 97.8913 25.36C96.6213 25.97 95.1413 26.27 93.4513 26.27C92.2113 26.27 91.0313 26.08 89.9313 25.69C88.8213 25.3 87.8513 24.74 87.0213 23.99C86.1913 23.25 85.5313 22.33 85.0613 21.25C84.5813 20.16 84.3513 18.92 84.3513 17.53C84.3513 16.14 84.5813 14.95 85.0513 13.86C85.5213 12.76 86.1513 11.83 86.9413 11.07C87.7413 10.31 88.6813 9.71 89.7713 9.29C90.8613 8.87 92.0313 8.66 93.2913 8.66C94.5513 8.66 95.6313 8.86 96.6513 9.27C97.6713 9.68 98.5413 10.27 99.2813 11.05C100.011 11.83 100.581 12.77 100.991 13.88C101.401 14.99 101.601 16.25 101.601 17.67L101.591 17.68ZM96.5713 15.59C96.5713 14.73 96.3013 13.98 95.7613 13.36C95.2213 12.74 94.4013 12.43 93.3213 12.43C92.7913 12.43 92.3013 12.51 91.8613 12.68C91.4213 12.85 91.0313 13.07 90.7013 13.36C90.3713 13.65 90.1013 13.99 89.9013 14.37C89.7013 14.76 89.5913 15.16 89.5713 15.58H96.5813L96.5713 15.59Z" fill="#4CAF50"/>
<path d="M115.061 4.65C114.861 4.58 114.631 4.53 114.361 4.48C114.091 4.44 113.831 4.41 113.561 4.41C113.051 4.41 112.641 4.5 112.331 4.68C112.021 4.86 111.781 5.1 111.601 5.39C111.421 5.69 111.301 6.03 111.231 6.4C111.161 6.78 111.131 7.15 111.131 7.53V9.19H114.821V13.25H111.131V25.75H105.681V13.25H102.661V9.19H105.681V7.59C105.681 6.57 105.791 5.6 106.011 4.68C106.231 3.76 106.611 2.95 107.161 2.25C107.701 1.55 108.431 0.999996 109.351 0.589996C110.271 0.179996 111.421 -0.0200043 112.791 -0.0200043C113.261 -0.0200043 113.711 0.00999573 114.171 0.0599957C114.621 0.119996 115.041 0.199996 115.421 0.309996L115.051 4.63L115.061 4.65Z" fill="#4CAF50"/>
<path d="M132.431 25.76L130.601 21.14H121.491L119.761 25.76H113.581L123.451 2.23H128.971L138.741 25.76H132.421H132.431ZM126.111 8.51L123.121 16.59H129.041L126.121 8.51H126.111Z" fill="#4CAF50"/>
<path d="M158.761 17.42C158.761 18.57 158.581 19.68 158.231 20.74C157.881 21.8 157.361 22.74 156.681 23.55C156.001 24.36 155.181 25.01 154.201 25.49C153.221 25.98 152.121 26.22 150.881 26.22C149.861 26.22 148.901 26.01 147.991 25.61C147.081 25.2 146.371 24.64 145.861 23.93H145.791V33.74H140.341V9.21H145.531V11.24H145.631C146.141 10.58 146.841 9.99 147.741 9.5C148.641 9 149.701 8.75 150.911 8.75C152.121 8.75 153.191 8.98 154.171 9.45C155.141 9.92 155.971 10.55 156.651 11.34C157.331 12.14 157.851 13.06 158.211 14.12C158.581 15.17 158.761 16.28 158.761 17.43V17.42ZM153.471 17.42C153.471 16.89 153.391 16.37 153.221 15.86C153.051 15.35 152.811 14.9 152.491 14.51C152.171 14.12 151.761 13.81 151.281 13.56C150.791 13.32 150.231 13.19 149.581 13.19C148.931 13.19 148.411 13.31 147.921 13.56C147.431 13.8 147.021 14.13 146.671 14.52C146.331 14.92 146.061 15.37 145.871 15.88C145.681 16.39 145.591 16.91 145.591 17.44C145.591 17.97 145.681 18.49 145.871 19C146.061 19.51 146.321 19.96 146.671 20.36C147.011 20.76 147.431 21.08 147.921 21.32C148.411 21.56 148.961 21.69 149.581 21.69C150.201 21.69 150.791 21.57 151.281 21.32C151.771 21.08 152.171 20.75 152.491 20.36C152.811 19.96 153.061 19.5 153.221 18.98C153.391 18.46 153.471 17.93 153.471 17.4V17.42Z" fill="#4CAF50"/>
<path d="M179.161 17.42C179.161 18.57 178.981 19.68 178.631 20.74C178.281 21.8 177.761 22.74 177.081 23.55C176.401 24.36 175.581 25.01 174.601 25.49C173.621 25.98 172.521 26.22 171.281 26.22C170.261 26.22 169.301 26.01 168.391 25.61C167.481 25.2 166.771 24.64 166.261 23.93H166.191V33.74H160.741V9.21H165.931V11.24H166.031C166.541 10.58 167.241 9.99 168.141 9.5C169.041 9 170.101 8.75 171.311 8.75C172.521 8.75 173.591 8.98 174.571 9.45C175.541 9.92 176.371 10.55 177.051 11.34C177.731 12.14 178.251 13.06 178.611 14.12C178.981 15.17 179.161 16.28 179.161 17.43V17.42ZM173.881 17.42C173.881 16.89 173.801 16.37 173.631 15.86C173.461 15.35 173.221 14.9 172.901 14.51C172.581 14.12 172.171 13.81 171.691 13.56C171.201 13.32 170.641 13.19 169.991 13.19C169.341 13.19 168.821 13.31 168.331 13.56C167.841 13.8 167.431 14.13 167.081 14.52C166.741 14.92 166.471 15.37 166.281 15.88C166.091 16.39 166.001 16.91 166.001 17.44C166.001 17.97 166.091 18.49 166.281 19C166.471 19.51 166.731 19.96 167.081 20.36C167.421 20.76 167.841 21.08 168.331 21.32C168.821 21.56 169.371 21.69 169.991 21.69C170.611 21.69 171.201 21.57 171.691 21.32C172.181 21.08 172.581 20.75 172.901 20.36C173.221 19.96 173.471 19.5 173.631 18.98C173.801 18.46 173.881 17.93 173.881 17.4V17.42Z" fill="#4CAF50"/>
<path d="M17.9313 2.25001H6.28132C3.00132 2.25001 0.351318 4.90001 0.351318 8.17001V19.82C0.351318 23.09 3.00132 25.75 6.28132 25.75H17.9313C21.2013 25.75 23.8613 23.1 23.8613 19.82V8.17001C23.8613 4.90001 21.2113 2.24001 17.9313 2.24001V2.25001ZM20.4913 9.44001L10.8713 19.85C10.3413 20.42 9.61132 20.76 8.83132 20.78C8.80132 20.78 8.77132 20.78 8.73132 20.78C7.98132 20.78 7.28132 20.5 6.73132 19.98L3.71132 17.11C3.15132 16.57 3.12132 15.68 3.66132 15.12C4.20132 14.56 5.09132 14.53 5.65132 15.07L8.67132 17.94C8.67132 17.94 8.70132 17.96 8.73132 17.96C8.77132 17.96 8.78132 17.94 8.79132 17.93L18.4113 7.52001C18.9413 6.95001 19.8313 6.91001 20.4013 7.44001C20.9713 7.97001 21.0113 8.86001 20.4813 9.43001L20.4913 9.44001Z" fill="#4CAF50"/>
</g>
<defs>
<clipPath id="clip0_3125_690">
<rect width="178.81" height="33.74" fill="white" transform="translate(0.351318)"/>
</clipPath>
</defs>
</svg>
